<?xml version="1.0" standalone="no"?>
<!DOCTYPE svg PUBLIC "-//W3C//DTD SVG 20010904//EN"
 "http://www.w3.org/TR/2001/REC-SVG-20010904/DTD/svg10.dtd">
<svg version="1.0" xmlns="http://www.w3.org/2000/svg"
 width="512.000000pt" height="512.000000pt" viewBox="0 0 512.000000 512.000000"
 preserveAspectRatio="xMidYMid meet">
<metadata>
Created by potrace 1.14, written by Peter Selinger 2001-2017
</metadata>
<g transform="translate(0.000000,512.000000) scale(0.100000,-0.100000)"
fill="#000000" stroke="none">
<path d="M2319 4956 c-2 -2 -29 -6 -59 -10 -30 -3 -66 -8 -80 -11 -14 -3 -42
-7 -62 -10 -20 -3 -54 -9 -75 -14 -36 -9 -157 -40 -178 -45 -5 -2 -23 -8 -38
-14 -16 -7 -32 -12 -36 -12 -23 0 -233 -90 -339 -145 -241 -126 -402 -245
-602 -446 -218 -218 -394 -478 -505 -751 -14 -35 -30 -72 -35 -83 -38 -89
-111 -362 -125 -475 -4 -30 -10 -64 -13 -75 -2 -11 -6 -132 -8 -270 -2 -223 1
-288 21 -408 3 -17 8 -48 11 -67 19 -113 86 -341 138 -467 79 -191 215 -424
333 -569 26 -32 55 -68 63 -78 41 -52 245 -249 320 -309 166 -134 373 -258
565 -340 76 -32 252 -95 285 -102 8 -2 35 -8 60 -15 25 -7 56 -14 70 -17 14
-2 45 -9 70 -14 25 -6 65 -13 90 -16 25 -3 65 -9 90 -14 48 -9 538 -6 580 4
14 3 43 8 65 11 22 2 74 12 115 21 41 9 84 18 95 21 149 29 447 149 602 240
17 11 56 34 87 52 31 17 64 38 73 46 10 8 58 44 107 81 104 77 130 100 250
220 131 131 226 248 321 395 43 67 149 257 150 270 1 3 9 19 18 37 9 18 17 39
17 48 0 8 5 15 12 15 6 0 9 3 5 6 -3 4 2 23 12 43 11 20 20 41 21 46 4 15 7
25 28 90 20 59 41 135 47 165 2 8 8 33 13 55 13 50 23 104 39 225 10 70 10
552 0 605 -4 23 -10 52 -13 65 -3 14 -6 32 -6 40 0 23 -46 219 -63 271 -9 25
-17 54 -19 65 -9 44 -101 257 -157 363 -56 106 -146 253 -182 297 -9 10 -30
37 -47 59 -65 85 -108 134 -214 238 -268 267 -587 461 -951 578 -98 32 -274
74 -345 84 -25 3 -56 8 -70 11 -29 6 -545 16 -551 10z m369 -731 c160 -22 365
-130 475 -250 39 -42 109 -141 140 -197 30 -54 73 -186 84 -255 9 -59 9 -224
1 -278 -20 -118 -82 -260 -161 -364 -40 -55 -146 -161 -159 -161 -4 0 -13 -6
-20 -13 -20 -20 -146 -92 -178 -102 -3 -1 -36 -11 -75 -23 -160 -49 -376 -47
-505 5 -8 3 -20 7 -26 8 -28 7 -164 81 -209 114 -169 128 -291 321 -330 525
-20 99 -13 281 13 371 58 199 167 356 325 469 186 133 396 183 625 151z m-843
-1690 c11 -5 54 -29 95 -55 151 -93 283 -144 428 -166 20 -3 48 -7 61 -9 30
-5 184 -6 231 -2 187 18 369 81 511 177 74 51 123 70 179 71 127 3 233 -137
199 -264 -13 -48 -104 -140 -204 -205 -65 -43 -225 -120 -263 -127 -9 -2 -18
-4 -19 -4 -2 -1 -6 -2 -10 -2 -5 -1 -18 -5 -31 -10 -12 -5 -33 -11 -45 -13
-12 -3 -31 -7 -42 -9 -11 -2 -36 -7 -55 -11 -19 -3 -46 -8 -60 -11 -13 -2 -39
-6 -57 -7 -18 -1 -33 -5 -33 -8 0 -3 147 -154 328 -335 292 -295 328 -336 340
-377 50 -171 -151 -333 -302 -244 -22 13 -148 133 -280 265 -158 160 -246 241
-259 241 -14 0 -103 -82 -262 -241 -132 -133 -256 -253 -276 -266 -44 -29
-116 -34 -169 -11 -115 49 -173 185 -121 286 10 20 161 180 335 354 174 174
316 322 316 327 0 6 -15 11 -34 11 -29 0 -69 7 -216 36 -118 24 -304 109 -410
188 -125 94 -162 143 -166 223 -2 50 31 125 73 165 53 50 143 63 218 33z"/>
<path d="M2479 3795 c-188 -38 -320 -187 -335 -378 -12 -164 77 -322 222 -393
33 -16 61 -29 64 -30 3 0 21 -4 40 -8 77 -16 186 -7 237 19 15 8 34 15 41 15
6 0 12 5 12 10 0 6 6 10 13 10 15 0 85 64 119 110 63 84 91 234 63 338 -19 74
-60 145 -111 196 -96 94 -237 137 -365 111z"/>
</g>
</svg>
